<svg xmlns="http://www.w3.org/2000/svg" width="17.667" height="26" viewBox="0 0 17.667 26"><path fill="#AAD21D" d="M8.887 2.572c-3.98 0-7.2 3.222-7.2 7.198 0 3.975 7.2 13.658 7.2 13.658s7.195-9.683 7.195-13.658c0-3.976-3.22-7.198-7.195-7.198zm0 13.324c-1.863 0-3.373-1.51-3.373-3.37s1.51-3.37 3.373-3.37c1.86 0 3.367 1.51 3.367 3.37s-1.508 3.37-3.367 3.37z"/><path fill="#90B608" d="M8.884 23.428S16.08 13.745 16.08 9.77c0-3.977-3.22-7.198-7.196-7.198v6.585c1.86 0 3.368 1.51 3.368 3.37s-1.508 3.37-3.368 3.37v7.53z"/></svg>