<?xml version="1.0" encoding="utf-8"?>
<!-- Generator: Adobe Illustrator 16.0.0, SVG Export Plug-In . SVG Version: 6.00 Build 0)  -->
<!DOCTYPE svg PUBLIC "-//W3C//DTD SVG 1.1//EN" "http://www.w3.org/Graphics/SVG/1.1/DTD/svg11.dtd">
<svg version="1.1" id="Layer_1" xmlns="http://www.w3.org/2000/svg" xmlns:xlink="http://www.w3.org/1999/xlink" x="0px" y="0px"
	 width="17.667px" height="26px" viewBox="0 0 17.667 26" enable-background="new 0 0 17.667 26" xml:space="preserve">
<g>
	<path fill="#AAD21D" d="M8.887,2.572c-3.979,0-7.199,3.222-7.199,7.198c0,3.975,7.199,13.658,7.199,13.658
		s7.195-9.683,7.195-13.658C16.082,5.794,12.861,2.572,8.887,2.572z M8.887,15.896c-1.863,0-3.373-1.51-3.373-3.371
		c0-1.86,1.51-3.369,3.373-3.369c1.859,0,3.367,1.509,3.367,3.369C12.254,14.387,10.746,15.896,8.887,15.896z"/>
	<path fill="#90B608" d="M8.884,23.428c0,0,7.196-9.683,7.196-13.658c0-3.977-3.221-7.198-7.196-7.198v6.585
		c1.86,0,3.368,1.509,3.368,3.369c0,1.861-1.508,3.371-3.368,3.371V23.428z"/>
</g>
</svg>
